<svg width="24" height="24" viewBox="0 0 24 24" fill="none" xmlns="http://www.w3.org/2000/svg">
<g clip-path="url(#clip0_2046_2335)">
<g clip-path="url(#clip1_2046_2335)">
<path d="M12.309 2.62452C12.1546 2.4705 11.9043 2.47026 11.7501 2.62452L2.62372 11.7509C2.46982 11.9052 2.46982 12.1555 2.62372 12.3098L11.7501 21.4362C11.9043 21.5904 12.1546 21.5902 12.309 21.4362L21.4354 12.3098C21.5898 12.1554 21.5898 11.9053 21.4354 11.7509L12.309 2.62452ZM23.1326 10.0537C24.2242 11.1453 24.2242 12.9154 23.1326 14.007L14.0062 23.1334C12.9146 24.2247 11.1451 24.2242 10.0536 23.1326L0.927271 14.0063C-0.163892 12.9147 -0.163892 11.146 0.927271 10.0544L10.0536 0.92807C11.1451 -0.163453 12.9146 -0.163965 14.0062 0.927317L23.1326 10.0537Z" fill="#8187FF"/>
</g>
</g>
<defs>
<clipPath id="clip0_2046_2335">
<rect width="24" height="24" fill="white"/>
</clipPath>
<clipPath id="clip1_2046_2335">
<rect width="24" height="24" fill="white"/>
</clipPath>
</defs>
</svg>
